<?xml version="1.0" encoding="UTF-8" standalone="no"?>
<!DOCTYPE svg PUBLIC "-//W3C//DTD SVG 1.1//EN"
 "http://www.w3.org/Graphics/SVG/1.1/DTD/svg11.dtd">
<!-- Generated by graphviz version 2.43.0 (0)
 -->
<!-- Title: cache_fetch Pages: 1 -->
<svg width="783pt" height="1219pt"
 viewBox="36.00 36.00 747.00 1182.74" xmlns="http://www.w3.org/2000/svg" xmlns:xlink="http://www.w3.org/1999/xlink">
<g id="graph0" class="graph" transform="scale(1 1) rotate(0) translate(40 1178.74)">
<title>cache_fetch</title>
<polygon fill="white" stroke="transparent" points="-4,4 -4,-1142.74 707,-1142.74 707,4 -4,4"/>
<g id="clust1" class="cluster">
<title>cluster_backend</title>
<polygon fill="aliceblue" stroke="aliceblue" points="8,-8 8,-1130.74 695,-1130.74 695,-8 8,-8"/>
</g>
<!-- RETRY -->
<g id="node1" class="node">
<title>RETRY</title>
<text text-anchor="middle" x="313" y="-1109.04" font-family="Times,serif" font-size="14.00">RETRY</text>
</g>
<!-- v_b_f -->
<g id="node4" class="node">
<title>v_b_f</title>
<polygon fill="none" stroke="black" points="53.5,-988.24 53.5,-1057.24 286.5,-1057.24 286.5,-988.24 53.5,-988.24"/>
<text text-anchor="middle" x="170" y="-1042.04" font-family="Times,serif" font-size="14.00">vbf_stp_startfetch:</text>
<polyline fill="none" stroke="black" points="53.5,-1034.24 286.5,-1034.24 "/>
<text text-anchor="middle" x="135.5" y="-1019.04" font-family="Times,serif" font-size="14.00">vcl_backend_fetch{}</text>
<polyline fill="none" stroke="black" points="217.5,-1011.24 217.5,-1034.24 "/>
<text text-anchor="middle" x="252" y="-1019.04" font-family="Times,serif" font-size="14.00">bereq.*</text>
<polyline fill="none" stroke="black" points="53.5,-1011.24 286.5,-1011.24 "/>
<text text-anchor="middle" x="81" y="-996.04" font-family="Times,serif" font-size="14.00">error</text>
<polyline fill="none" stroke="black" points="108.5,-988.24 108.5,-1011.24 "/>
<text text-anchor="middle" x="129.5" y="-996.04" font-family="Times,serif" font-size="14.00">fail</text>
<polyline fill="none" stroke="black" points="150.5,-988.24 150.5,-1011.24 "/>
<text text-anchor="middle" x="190.5" y="-996.04" font-family="Times,serif" font-size="14.00">abandon</text>
<polyline fill="none" stroke="black" points="230.5,-988.24 230.5,-1011.24 "/>
<text text-anchor="middle" x="258.5" y="-996.04" font-family="Times,serif" font-size="14.00">fetch</text>
</g>
<!-- RETRY&#45;&gt;v_b_f -->
<g id="edge4" class="edge">
<title>RETRY&#45;&gt;v_b_f</title>
<path fill="none" stroke="purple" d="M285.09,-1094.56C270.28,-1085.45 251.44,-1073.86 233.31,-1062.7"/>
<polygon fill="purple" stroke="purple" points="234.84,-1059.53 224.49,-1057.27 231.17,-1065.49 234.84,-1059.53"/>
</g>
<!-- v_b_f_BGFETCH -->
<g id="node2" class="node">
<title>v_b_f_BGFETCH</title>
<polygon fill="turquoise" stroke="turquoise" points="262,-1130.74 172,-1130.74 172,-1094.74 262,-1094.74 262,-1130.74"/>
<text text-anchor="middle" x="217" y="-1109.04" font-family="Times,serif" font-size="14.00">BGFETCH</text>
</g>
<!-- v_b_f_BGFETCH&#45;&gt;v_b_f -->
<g id="edge1" class="edge">
<title>v_b_f_BGFETCH&#45;&gt;v_b_f</title>
<path fill="none" stroke="green" stroke-width="2" d="M207.71,-1094.35C203.41,-1086.3 198.09,-1076.34 192.82,-1066.47"/>
<polygon fill="green" stroke="green" stroke-width="2" points="195.82,-1064.65 188.02,-1057.48 189.65,-1067.95 195.82,-1064.65"/>
</g>
<!-- v_b_f_FETCH -->
<g id="node3" class="node">
<title>v_b_f_FETCH</title>
<polygon fill="turquoise" stroke="turquoise" points="154,-1130.74 86,-1130.74 86,-1094.74 154,-1094.74 154,-1130.74"/>
<text text-anchor="middle" x="120" y="-1109.04" font-family="Times,serif" font-size="14.00">FETCH</text>
</g>
<!-- v_b_f_FETCH&#45;&gt;v_b_f -->
<g id="edge2" class="edge">
<title>v_b_f_FETCH&#45;&gt;v_b_f</title>
<path fill="none" stroke="blue" stroke-width="2" d="M124.37,-1094.35C128.12,-1086.22 133.43,-1076.14 139.15,-1066.17"/>
<polygon fill="blue" stroke="blue" stroke-width="2" points="142.2,-1067.88 144.24,-1057.48 136.16,-1064.34 142.2,-1067.88"/>
</g>
<!-- v_b_f_FETCH&#45;&gt;v_b_f -->
<g id="edge3" class="edge">
<title>v_b_f_FETCH&#45;&gt;v_b_f</title>
<path fill="none" stroke="red" stroke-width="2" d="M135.38,-1094.35C140.83,-1086.3 146.9,-1076.34 152.47,-1066.47"/>
<polygon fill="red" stroke="red" stroke-width="2" points="155.66,-1067.93 157.41,-1057.48 149.53,-1064.56 155.66,-1067.93"/>
</g>
<!-- v_b_e -->
<g id="node5" class="node">
<title>v_b_e</title>
<polygon fill="none" stroke="black" points="176.5,-424.5 176.5,-539.5 453.5,-539.5 453.5,-424.5 176.5,-424.5"/>
<text text-anchor="middle" x="315" y="-524.3" font-family="Times,serif" font-size="14.00">vbf_stp_error:</text>
<polyline fill="none" stroke="black" points="176.5,-516.5 453.5,-516.5 "/>
<text text-anchor="middle" x="267.5" y="-489.8" font-family="Times,serif" font-size="14.00">vcl_backend_error{}</text>
<polyline fill="none" stroke="black" points="358.5,-470.5 358.5,-516.5 "/>
<text text-anchor="middle" x="406" y="-501.3" font-family="Times,serif" font-size="14.00">bereq.*</text>
<polyline fill="none" stroke="black" points="358.5,-493.5 453.5,-493.5 "/>
<text text-anchor="middle" x="406" y="-478.3" font-family="Times,serif" font-size="14.00">beresp.*</text>
<polyline fill="none" stroke="black" points="176.5,-470.5 453.5,-470.5 "/>
<text text-anchor="middle" x="243.5" y="-455.3" font-family="Times,serif" font-size="14.00">retry</text>
<polyline fill="none" stroke="black" points="176.5,-447.5 310.5,-447.5 "/>
<text text-anchor="middle" x="196" y="-432.3" font-family="Times,serif" font-size="14.00">fail</text>
<polyline fill="none" stroke="black" points="215.5,-424.5 215.5,-447.5 "/>
<text text-anchor="middle" x="242.5" y="-432.3" font-family="Times,serif" font-size="14.00">max?</text>
<polyline fill="none" stroke="black" points="269.5,-424.5 269.5,-447.5 "/>
<text text-anchor="middle" x="290" y="-432.3" font-family="Times,serif" font-size="14.00">ok?</text>
<polyline fill="none" stroke="black" points="310.5,-424.5 310.5,-470.5 "/>
<text text-anchor="middle" x="349" y="-443.8" font-family="Times,serif" font-size="14.00">abandon</text>
<polyline fill="none" stroke="black" points="387.5,-424.5 387.5,-470.5 "/>
<text text-anchor="middle" x="420.5" y="-443.8" font-family="Times,serif" font-size="14.00">deliver</text>
</g>
<!-- v_b_f&#45;&gt;v_b_e -->
<g id="edge5" class="edge">
<title>v_b_f:s&#45;&gt;v_b_e</title>
<path fill="none" stroke="black" d="M81,-987.74C81,-952.04 31,-960.57 31,-924.87 31,-924.87 31,-924.87 31,-634 31,-605.78 37.82,-595.66 59,-577 97.07,-543.46 119.32,-557.34 167,-540 167.1,-539.96 167.19,-539.93 167.29,-539.89"/>
<polygon fill="black" stroke="black" points="168.22,-543.28 176.41,-536.56 165.81,-536.71 168.22,-543.28"/>
</g>
<!-- v_b_hdrs -->
<g id="node6" class="node">
<title>v_b_hdrs</title>
<ellipse fill="none" stroke="black" cx="271" cy="-923.87" rx="123.07" ry="26.74"/>
<text text-anchor="middle" x="271" y="-927.67" font-family="Times,serif" font-size="14.00">send bereq,</text>
<text text-anchor="middle" x="271" y="-912.67" font-family="Times,serif" font-size="14.00">read beresp (headers)</text>
</g>
<!-- v_b_f&#45;&gt;v_b_hdrs -->
<g id="edge6" class="edge">
<title>v_b_f:s&#45;&gt;v_b_hdrs</title>
<path fill="none" stroke="black" stroke-width="2" d="M259,-987.74C259,-978.95 260.14,-969.6 261.73,-960.86"/>
<polygon fill="black" stroke="black" stroke-width="2" points="265.18,-961.46 263.74,-950.97 258.32,-960.07 265.18,-961.46"/>
</g>
<!-- FETCH_DONE -->
<g id="node14" class="node">
<title>FETCH_DONE</title>
<polygon fill="turquoise" stroke="turquoise" points="434,-44 314,-44 314,-8 434,-8 434,-44"/>
<text text-anchor="middle" x="374" y="-22.3" font-family="Times,serif" font-size="14.00">FETCH_DONE</text>
</g>
<!-- v_b_e&#45;&gt;FETCH_DONE -->
<g id="edge27" class="edge">
<title>v_b_e:deliver&#45;&gt;FETCH_DONE</title>
<path fill="none" stroke="black" d="M421,-424C421,-413.3 409.91,-415.51 405,-406 355.61,-310.24 346.47,-276.48 354,-169 356.81,-128.92 364.02,-82.94 368.97,-54.43"/>
<polygon fill="black" stroke="black" points="372.45,-54.86 370.75,-44.41 365.56,-53.64 372.45,-54.86"/>
<text text-anchor="middle" x="413" y="-172.8" font-family="Times,serif" font-size="14.00">&quot;backend synth&quot;</text>
</g>
<!-- FETCH_FAIL -->
<g id="node16" class="node">
<title>FETCH_FAIL</title>
<polygon fill="turquoise" stroke="turquoise" points="184.5,-266.5 77.5,-266.5 77.5,-230.5 184.5,-230.5 184.5,-266.5"/>
<text text-anchor="middle" x="131" y="-244.8" font-family="Times,serif" font-size="14.00">FETCH_FAIL</text>
</g>
<!-- v_b_e&#45;&gt;FETCH_FAIL -->
<g id="edge29" class="edge">
<title>v_b_e:s&#45;&gt;FETCH_FAIL</title>
<path fill="none" stroke="black" d="M242,-424C242,-362.17 191.78,-304.57 158.9,-273.48"/>
<polygon fill="black" stroke="black" points="161.08,-270.73 151.36,-266.53 156.34,-275.88 161.08,-270.73"/>
</g>
<!-- v_b_e_retry -->
<g id="node17" class="node">
<title>v_b_e_retry</title>
<text text-anchor="middle" x="289" y="-244.8" font-family="Times,serif" font-size="14.00">RETRY</text>
</g>
<!-- v_b_e&#45;&gt;v_b_e_retry -->
<g id="edge28" class="edge">
<title>v_b_e:retry&#45;&gt;v_b_e_retry</title>
<path fill="none" stroke="purple" d="M290,-424C290,-372.06 289.55,-311.42 289.26,-277.04"/>
<polygon fill="purple" stroke="purple" points="292.75,-276.81 289.17,-266.84 285.75,-276.87 292.75,-276.81"/>
</g>
<!-- v_b_hdrs&#45;&gt;v_b_e -->
<g id="edge8" class="edge">
<title>v_b_hdrs&#45;&gt;v_b_e</title>
<path fill="none" stroke="black" d="M165.67,-909.96C126.15,-899.42 85.02,-880.37 61,-846 31.47,-803.74 55.22,-781.23 61,-730 68.83,-660.68 51.32,-630.57 96,-577 102.02,-569.78 131.37,-555.84 166.72,-540.86"/>
<polygon fill="black" stroke="black" points="168.46,-543.93 176.32,-536.83 165.75,-537.47 168.46,-543.93"/>
</g>
<!-- v_b_r -->
<g id="node7" class="node">
<title>v_b_r</title>
<polygon fill="none" stroke="black" points="282,-577.5 282,-692.5 668,-692.5 668,-577.5 282,-577.5"/>
<text text-anchor="middle" x="475" y="-677.3" font-family="Times,serif" font-size="14.00">vbf_stp_startfetch:</text>
<polyline fill="none" stroke="black" points="282,-669.5 668,-669.5 "/>
<text text-anchor="middle" x="407" y="-642.8" font-family="Times,serif" font-size="14.00">vcl_backend_response{}</text>
<polyline fill="none" stroke="black" points="532,-623.5 532,-669.5 "/>
<text text-anchor="middle" x="600" y="-654.3" font-family="Times,serif" font-size="14.00">bereq.*</text>
<polyline fill="none" stroke="black" points="532,-646.5 668,-646.5 "/>
<text text-anchor="middle" x="600" y="-631.3" font-family="Times,serif" font-size="14.00">beresp.*</text>
<polyline fill="none" stroke="black" points="282,-623.5 668,-623.5 "/>
<text text-anchor="middle" x="308.5" y="-596.8" font-family="Times,serif" font-size="14.00">error</text>
<polyline fill="none" stroke="black" points="335,-577.5 335,-623.5 "/>
<text text-anchor="middle" x="354.5" y="-596.8" font-family="Times,serif" font-size="14.00">fail</text>
<polyline fill="none" stroke="black" points="374,-577.5 374,-623.5 "/>
<text text-anchor="middle" x="421.5" y="-608.3" font-family="Times,serif" font-size="14.00">retry</text>
<polyline fill="none" stroke="black" points="374,-600.5 469,-600.5 "/>
<text text-anchor="middle" x="401" y="-585.3" font-family="Times,serif" font-size="14.00">max?</text>
<polyline fill="none" stroke="black" points="428,-577.5 428,-600.5 "/>
<text text-anchor="middle" x="448.5" y="-585.3" font-family="Times,serif" font-size="14.00">ok?</text>
<polyline fill="none" stroke="black" points="469,-577.5 469,-623.5 "/>
<text text-anchor="middle" x="507.5" y="-596.8" font-family="Times,serif" font-size="14.00">abandon</text>
<polyline fill="none" stroke="black" points="546,-577.5 546,-623.5 "/>
<text text-anchor="middle" x="607" y="-608.3" font-family="Times,serif" font-size="14.00">deliver or pass</text>
<polyline fill="none" stroke="black" points="546,-600.5 668,-600.5 "/>
<text text-anchor="middle" x="573.5" y="-585.3" font-family="Times,serif" font-size="14.00">304?</text>
<polyline fill="none" stroke="black" points="601,-577.5 601,-600.5 "/>
<text text-anchor="middle" x="634.5" y="-585.3" font-family="Times,serif" font-size="14.00">other?</text>
</g>
<!-- v_b_hdrs&#45;&gt;v_b_r -->
<g id="edge7" class="edge">
<title>v_b_hdrs&#45;&gt;v_b_r</title>
<path fill="none" stroke="black" stroke-width="2" d="M371.16,-908.26C441.95,-895.65 528,-874.88 550,-846 581.24,-804.99 567.03,-778.66 550,-730 546.49,-719.97 541.41,-710.21 535.52,-701.01"/>
<polygon fill="black" stroke="black" stroke-width="2" points="538.41,-699.04 529.91,-692.73 532.62,-702.97 538.41,-699.04"/>
<text text-anchor="middle" x="627" y="-784.3" font-family="Times,serif" font-size="14.00">&quot;no stale object&quot;</text>
</g>
<!-- v_b_refresh -->
<g id="node8" class="node">
<title>v_b_refresh</title>
<polygon fill="none" stroke="black" points="69.5,-730.5 69.5,-845.5 540.5,-845.5 540.5,-730.5 69.5,-730.5"/>
<text text-anchor="middle" x="305" y="-830.3" font-family="Times,serif" font-size="14.00">vbf_stp_startfetch:</text>
<polyline fill="none" stroke="black" points="69.5,-822.5 540.5,-822.5 "/>
<text text-anchor="middle" x="212.5" y="-795.8" font-family="Times,serif" font-size="14.00">vcl_backend_refresh{}</text>
<polyline fill="none" stroke="black" points="355.5,-776.5 355.5,-822.5 "/>
<text text-anchor="middle" x="448" y="-807.3" font-family="Times,serif" font-size="14.00">bereq.*</text>
<polyline fill="none" stroke="black" points="355.5,-799.5 540.5,-799.5 "/>
<text text-anchor="middle" x="448" y="-784.3" font-family="Times,serif" font-size="14.00">beresp.*</text>
<polyline fill="none" stroke="black" points="69.5,-776.5 540.5,-776.5 "/>
<text text-anchor="middle" x="96" y="-749.8" font-family="Times,serif" font-size="14.00">error</text>
<polyline fill="none" stroke="black" points="122.5,-730.5 122.5,-776.5 "/>
<text text-anchor="middle" x="142" y="-749.8" font-family="Times,serif" font-size="14.00">fail</text>
<polyline fill="none" stroke="black" points="161.5,-730.5 161.5,-776.5 "/>
<text text-anchor="middle" x="209" y="-761.3" font-family="Times,serif" font-size="14.00">retry</text>
<polyline fill="none" stroke="black" points="161.5,-753.5 256.5,-753.5 "/>
<text text-anchor="middle" x="188.5" y="-738.3" font-family="Times,serif" font-size="14.00">max?</text>
<polyline fill="none" stroke="black" points="215.5,-730.5 215.5,-753.5 "/>
<text text-anchor="middle" x="236" y="-738.3" font-family="Times,serif" font-size="14.00">ok?</text>
<polyline fill="none" stroke="black" points="256.5,-730.5 256.5,-776.5 "/>
<text text-anchor="middle" x="295" y="-749.8" font-family="Times,serif" font-size="14.00">abandon</text>
<polyline fill="none" stroke="black" points="333.5,-730.5 333.5,-776.5 "/>
<text text-anchor="middle" x="364.5" y="-749.8" font-family="Times,serif" font-size="14.00">merge</text>
<polyline fill="none" stroke="black" points="395.5,-730.5 395.5,-776.5 "/>
<text text-anchor="middle" x="435.5" y="-749.8" font-family="Times,serif" font-size="14.00">obj_stale</text>
<polyline fill="none" stroke="black" points="475.5,-730.5 475.5,-776.5 "/>
<text text-anchor="middle" x="508" y="-749.8" font-family="Times,serif" font-size="14.00">beresp</text>
</g>
<!-- v_b_hdrs&#45;&gt;v_b_refresh -->
<g id="edge9" class="edge">
<title>v_b_hdrs&#45;&gt;v_b_refresh</title>
<path fill="none" stroke="black" stroke-width="2" d="M277.64,-896.74C280.65,-884.87 284.37,-870.23 288.08,-855.61"/>
<polygon fill="black" stroke="black" stroke-width="2" points="291.57,-856.08 290.64,-845.53 284.79,-854.36 291.57,-856.08"/>
<text text-anchor="middle" x="332.5" y="-867.8" font-family="Times,serif" font-size="14.00">&quot;stale object&quot;</text>
</g>
<!-- v_b_r&#45;&gt;v_b_e -->
<g id="edge16" class="edge">
<title>v_b_r:s&#45;&gt;v_b_e</title>
<path fill="none" stroke="black" d="M308,-577C308,-568.2 308.31,-558.95 308.8,-549.83"/>
<polygon fill="black" stroke="black" points="312.3,-549.81 309.42,-539.62 305.32,-549.39 312.3,-549.81"/>
</g>
<!-- v_b_r&#45;&gt;v_b_e -->
<g id="edge18" class="edge">
<title>v_b_r:max&#45;&gt;v_b_e</title>
<path fill="none" stroke="black" d="M401,-577C401,-566.71 398.16,-557.06 393.52,-548.16"/>
<polygon fill="black" stroke="black" points="396.47,-546.27 388.31,-539.5 390.47,-549.88 396.47,-546.27"/>
</g>
<!-- v_b_r_retry -->
<g id="node9" class="node">
<title>v_b_r_retry</title>
<text text-anchor="middle" x="504" y="-478.3" font-family="Times,serif" font-size="14.00">RETRY</text>
</g>
<!-- v_b_r&#45;&gt;v_b_r_retry -->
<g id="edge17" class="edge">
<title>v_b_r:retry&#45;&gt;v_b_r_retry</title>
<path fill="none" stroke="purple" d="M448,-577C448,-562.26 468.58,-530.85 484.78,-508.4"/>
<polygon fill="purple" stroke="purple" points="487.64,-510.42 490.73,-500.28 481.99,-506.28 487.64,-510.42"/>
</g>
<!-- vbf_stp_condfetch -->
<g id="node10" class="node">
<title>vbf_stp_condfetch</title>
<polygon fill="none" stroke="grey" points="413.5,-313.5 413.5,-405.5 562.5,-405.5 562.5,-313.5 413.5,-313.5"/>
<text text-anchor="middle" x="488" y="-390.3" font-family="Times,serif" font-size="14.00" fill="grey">vbf_stp_condfetch:</text>
<polyline fill="none" stroke="grey" points="413.5,-382.5 562.5,-382.5 "/>
<text text-anchor="middle" x="488" y="-367.3" font-family="Times,serif" font-size="14.00" fill="grey">copy obj attr</text>
<polyline fill="none" stroke="grey" points="413.5,-359.5 562.5,-359.5 "/>
<text text-anchor="middle" x="488" y="-344.3" font-family="Times,serif" font-size="14.00" fill="grey">steal body</text>
<polyline fill="none" stroke="grey" points="413.5,-336.5 562.5,-336.5 "/>
<text text-anchor="middle" x="462.5" y="-321.3" font-family="Times,serif" font-size="14.00" fill="grey">fetch_fail?</text>
<polyline fill="none" stroke="grey" points="511.5,-313.5 511.5,-336.5 "/>
<text text-anchor="middle" x="537" y="-321.3" font-family="Times,serif" font-size="14.00" fill="grey">ok?</text>
</g>
<!-- v_b_r&#45;&gt;vbf_stp_condfetch -->
<g id="edge19" class="edge">
<title>v_b_r:s&#45;&gt;vbf_stp_condfetch</title>
<path fill="none" stroke="black" d="M574,-577C574,-560.18 569.21,-556.52 566,-540 556.03,-488.64 569.01,-470.98 546,-424 544.36,-420.65 542.49,-417.35 540.45,-414.13"/>
<polygon fill="black" stroke="black" points="543.24,-412.01 534.68,-405.76 537.48,-415.98 543.24,-412.01"/>
</g>
<!-- vbf_stp_fetch -->
<g id="node11" class="node">
<title>vbf_stp_fetch</title>
<polygon fill="none" stroke="grey" points="575,-436 575,-528 695,-528 695,-436 575,-436"/>
<text text-anchor="middle" x="635" y="-512.8" font-family="Times,serif" font-size="14.00" fill="grey">vbf_stp_fetch:</text>
<polyline fill="none" stroke="grey" points="575,-505 695,-505 "/>
<text text-anchor="middle" x="635" y="-489.8" font-family="Times,serif" font-size="14.00" fill="grey">setup VFPs</text>
<polyline fill="none" stroke="grey" points="575,-482 695,-482 "/>
<text text-anchor="middle" x="635" y="-466.8" font-family="Times,serif" font-size="14.00" fill="grey">get object</text>
<polyline fill="none" stroke="grey" points="575,-459 695,-459 "/>
<text text-anchor="middle" x="605.5" y="-443.8" font-family="Times,serif" font-size="14.00" fill="grey">error?</text>
<polyline fill="none" stroke="grey" points="636,-436 636,-459 "/>
<text text-anchor="middle" x="665.5" y="-443.8" font-family="Times,serif" font-size="14.00" fill="grey">body?</text>
</g>
<!-- v_b_r&#45;&gt;vbf_stp_fetch -->
<g id="edge20" class="edge">
<title>v_b_r:s&#45;&gt;vbf_stp_fetch</title>
<path fill="none" stroke="black" d="M635,-577C635,-564.63 635,-551.35 635,-538.78"/>
<polygon fill="black" stroke="black" points="638.5,-538.42 635,-528.42 631.5,-538.42 638.5,-538.42"/>
</g>
<!-- v_b_refresh&#45;&gt;v_b_e -->
<g id="edge10" class="edge">
<title>v_b_refresh:s&#45;&gt;v_b_e</title>
<path fill="none" stroke="black" d="M96,-730C96,-653.23 155.96,-589.18 213.13,-545.55"/>
<polygon fill="black" stroke="black" points="215.26,-548.32 221.17,-539.53 211.07,-542.72 215.26,-548.32"/>
</g>
<!-- v_b_refresh&#45;&gt;v_b_e -->
<g id="edge12" class="edge">
<title>v_b_refresh:max&#45;&gt;v_b_e</title>
<path fill="none" stroke="black" d="M188,-730C188,-662.68 225.77,-595.32 260.12,-547.99"/>
<polygon fill="black" stroke="black" points="263.13,-549.81 266.26,-539.69 257.5,-545.65 263.13,-549.81"/>
</g>
<!-- v_b_refresh&#45;&gt;v_b_r -->
<g id="edge13" class="edge">
<title>v_b_refresh:merge&#45;&gt;v_b_r</title>
<path fill="none" stroke="black" d="M365,-730C365,-719.45 367.96,-709.83 372.91,-701.12"/>
<polygon fill="black" stroke="black" points="375.88,-702.98 378.49,-692.72 370.04,-699.11 375.88,-702.98"/>
</g>
<!-- v_b_refresh&#45;&gt;v_b_r -->
<g id="edge14" class="edge">
<title>v_b_refresh:beresp&#45;&gt;v_b_r</title>
<path fill="none" stroke="black" d="M508,-730C508,-720.85 506.59,-711.48 504.36,-702.35"/>
<polygon fill="black" stroke="black" points="507.69,-701.27 501.64,-692.58 500.95,-703.15 507.69,-701.27"/>
</g>
<!-- v_b_refresh&#45;&gt;v_b_r -->
<g id="edge15" class="edge">
<title>v_b_refresh:stale&#45;&gt;v_b_r</title>
<path fill="none" stroke="black" d="M436,-730C436,-720.79 437.62,-711.43 440.19,-702.36"/>
<polygon fill="black" stroke="black" points="443.58,-703.26 443.34,-692.67 436.92,-701.1 443.58,-703.26"/>
</g>
<!-- v_b_refresh&#45;&gt;v_b_r_retry -->
<g id="edge11" class="edge">
<title>v_b_refresh:retry&#45;&gt;v_b_r_retry</title>
<path fill="none" stroke="purple" d="M236,-730C236,-660.04 222.43,-625.35 273,-577 335.18,-517.55 390.56,-586.41 463,-540 474.71,-532.5 484.12,-520.37 490.96,-509.22"/>
<polygon fill="purple" stroke="purple" points="494.19,-510.63 496.1,-500.21 488.1,-507.17 494.19,-510.63"/>
</g>
<!-- vbf_stp_fetchend -->
<g id="node13" class="node">
<title>vbf_stp_fetchend</title>
<polygon fill="none" stroke="grey" points="410,-81.5 410,-150.5 618,-150.5 618,-81.5 410,-81.5"/>
<text text-anchor="middle" x="514" y="-135.3" font-family="Times,serif" font-size="14.00" fill="grey">vbf_stp_fetchend:</text>
<polyline fill="none" stroke="grey" points="410,-127.5 618,-127.5 "/>
<text text-anchor="middle" x="514" y="-112.3" font-family="Times,serif" font-size="14.00" fill="grey">finalize object and director</text>
<polyline fill="none" stroke="grey" points="410,-104.5 618,-104.5 "/>
<text text-anchor="middle" x="514" y="-89.3" font-family="Times,serif" font-size="14.00" fill="grey">done</text>
</g>
<!-- vbf_stp_condfetch&#45;&gt;vbf_stp_fetchend -->
<g id="edge25" class="edge">
<title>vbf_stp_condfetch:s&#45;&gt;vbf_stp_fetchend</title>
<path fill="none" stroke="black" d="M537,-313C537,-284.31 492.23,-317.94 475,-295 445.45,-255.66 466.2,-198.42 487.04,-159.55"/>
<polygon fill="black" stroke="black" points="490.23,-161.01 492.03,-150.57 484.11,-157.61 490.23,-161.01"/>
</g>
<!-- vbf_stp_fetchbody -->
<g id="node12" class="node">
<title>vbf_stp_fetchbody</title>
<polygon fill="none" stroke="grey" points="483.5,-202.5 483.5,-294.5 674.5,-294.5 674.5,-202.5 483.5,-202.5"/>
<text text-anchor="middle" x="579" y="-279.3" font-family="Times,serif" font-size="14.00" fill="grey">vbf_stp_fetchbody:</text>
<polyline fill="none" stroke="grey" points="483.5,-271.5 674.5,-271.5 "/>
<text text-anchor="middle" x="579" y="-256.3" font-family="Times,serif" font-size="14.00" fill="grey">get storage</text>
<polyline fill="none" stroke="grey" points="483.5,-248.5 674.5,-248.5 "/>
<text text-anchor="middle" x="579" y="-233.3" font-family="Times,serif" font-size="14.00" fill="grey">read body, run VFPs</text>
<polyline fill="none" stroke="grey" points="483.5,-225.5 674.5,-225.5 "/>
<text text-anchor="middle" x="528" y="-210.3" font-family="Times,serif" font-size="14.00" fill="grey">fetch_fail?</text>
<polyline fill="none" stroke="grey" points="572.5,-202.5 572.5,-225.5 "/>
<text text-anchor="middle" x="603" y="-210.3" font-family="Times,serif" font-size="14.00" fill="grey">error?</text>
<polyline fill="none" stroke="grey" points="633.5,-202.5 633.5,-225.5 "/>
<text text-anchor="middle" x="654" y="-210.3" font-family="Times,serif" font-size="14.00" fill="grey">ok?</text>
</g>
<!-- vbf_stp_fetch&#45;&gt;vbf_stp_fetchbody -->
<g id="edge22" class="edge">
<title>vbf_stp_fetch:s&#45;&gt;vbf_stp_fetchbody</title>
<path fill="none" stroke="black" d="M666,-435C666,-387.45 642.28,-338.98 619.61,-303.52"/>
<polygon fill="black" stroke="black" points="622.3,-301.23 613.88,-294.79 616.44,-305.07 622.3,-301.23"/>
</g>
<!-- vbf_stp_fetch&#45;&gt;vbf_stp_fetchend -->
<g id="edge23" class="edge">
<title>vbf_stp_fetch:s&#45;&gt;vbf_stp_fetchend</title>
<path fill="none" stroke="black" d="M666,-435C666,-331.14 723.01,-298.26 684,-202 673.62,-176.4 651.85,-158.45 627.25,-145.89"/>
<polygon fill="black" stroke="black" points="628.61,-142.66 618.08,-141.5 625.59,-148.97 628.61,-142.66"/>
</g>
<!-- vbf_stp_fetchbody&#45;&gt;vbf_stp_fetchend -->
<g id="edge21" class="edge">
<title>vbf_stp_fetchbody:s&#45;&gt;vbf_stp_fetchend</title>
<path fill="none" stroke="black" d="M654,-202C654,-181.54 642.94,-165.87 627.04,-153.9"/>
<polygon fill="black" stroke="black" points="628.55,-150.7 618.31,-147.98 624.62,-156.49 628.55,-150.7"/>
</g>
<!-- vbf_stp_fetchend&#45;&gt;FETCH_DONE -->
<g id="edge24" class="edge">
<title>vbf_stp_fetchend:s&#45;&gt;FETCH_DONE</title>
<path fill="none" stroke="black" d="M514,-81C514,-47.81 479.32,-34.28 444.47,-29.06"/>
<polygon fill="black" stroke="black" points="444.55,-25.54 434.19,-27.75 443.66,-32.49 444.55,-25.54"/>
</g>
<!-- fail -->
<g id="node15" class="node">
<title>fail</title>
<text text-anchor="middle" x="131" y="-478.3" font-family="Times,serif" font-size="14.00">fail</text>
</g>
<!-- fail&#45;&gt;FETCH_FAIL -->
<g id="edge26" class="edge">
<title>fail&#45;&gt;FETCH_FAIL</title>
<path fill="none" stroke="black" d="M131,-463.98C131,-424.18 131,-324.76 131,-276.56"/>
<polygon fill="black" stroke="black" points="134.5,-276.55 131,-266.55 127.5,-276.55 134.5,-276.55"/>
</g>
<!-- abandon -->
<g id="node18" class="node">
<title>abandon</title>
<text text-anchor="middle" x="47" y="-478.3" font-family="Times,serif" font-size="14.00">abandon</text>
</g>
<!-- abandon&#45;&gt;FETCH_FAIL -->
<g id="edge30" class="edge">
<title>abandon&#45;&gt;FETCH_FAIL</title>
<path fill="none" stroke="black" d="M53.18,-463.98C67.68,-424.01 103.99,-323.93 121.4,-275.95"/>
<polygon fill="black" stroke="black" points="124.69,-277.14 124.81,-266.55 118.11,-274.75 124.69,-277.14"/>
</g>
</g>
</svg>
